<svg width="92" height="49" viewBox="0 0 92 49" fill="none" xmlns="http://www.w3.org/2000/svg">
<path d="M27.8499 0.954224C40.9149 3.90812 47.9426 12.8357 47.8924 26.1329C47.8649 33.4288 47.8875 40.7249 47.8875 48.1484C44.7499 48.1484 41.7903 48.1484 38.5182 48.1484C38.5182 46.366 38.5183 44.5976 38.5182 42.8292C38.5177 36.6177 38.5816 30.4054 38.4997 24.1951C38.4065 17.1307 32.9759 11.0342 26.2163 10.2388C18.6668 9.35054 12.0683 13.672 10.2003 20.7279C8.32959 27.794 11.8107 34.9092 18.5422 37.7423C19.2385 38.0354 19.9782 38.2256 20.946 38.5456C20.946 33.7749 20.946 29.2603 20.946 24.6094C23.7657 24.6094 26.3946 24.6094 29.1421 24.6094C29.1421 32.4044 29.1421 40.1672 29.142 47.9303C14.9722 50.2537 3.77668 41.7946 0.920965 29.7192C-2.06008 17.1138 6.06891 4.08783 18.7493 1.38085C21.6156 0.768936 24.6729 1.05134 27.8499 0.954224Z" fill="#3063E6"/>
<path d="M71.6726 44.2117C71.6726 45.6066 71.6726 46.7759 71.6726 48.1159C68.561 48.1159 65.5514 48.1159 62.2788 48.1159C62.2788 46.5116 62.2751 44.9639 62.2794 43.4162C62.2974 36.9709 62.3278 30.5256 62.3351 24.0803C62.3463 14.1579 55.6599 5.07256 45.9961 1.85499C45.4191 1.66288 44.8414 1.47318 44.0913 1.22529C55.6051 -1.58131 68.3305 6.87547 71.0739 19.0455C71.4845 20.8672 71.6443 22.7777 71.6631 24.6497C71.7278 31.0946 71.6785 37.5406 71.6726 44.2117Z" fill="#3063E6"/>
</svg>
