<svg width="87" height="87" viewBox="0 0 87 87" fill="none" xmlns="http://www.w3.org/2000/svg">
<path d="M69.0882 56.0742C78.965 56.0742 87 48.0706 87 38.2324C87 33.7945 85.3534 29.5412 82.3628 26.2556C79.9412 23.5946 76.802 21.742 73.3503 20.9017C73.1684 9.34504 63.6741 0 52.0294 0C45.3492 0 39.2086 3.04266 35.1845 8.24453C32.9615 7.2927 30.5673 6.79688 28.1471 6.79688C18.2703 6.79688 10.2353 14.8005 10.2353 24.6387C10.2353 25.6821 10.3299 26.7235 10.5172 27.7557C4.42663 29.4907 0 35.0962 0 41.6309C0 49.5946 6.50501 56.0742 14.5 56.0742H27.2941V72.4186L20.5519 74.6574C19.1452 72.864 16.9562 71.707 14.5 71.707C10.2673 71.707 6.82353 75.1373 6.82353 79.3535C6.82353 83.5697 10.2673 87 14.5 87C18.6861 87 22.0978 83.6447 22.1731 79.4922L30.6619 76.6739C31.7068 76.3268 32.4118 75.3531 32.4118 74.2559V56.0742H40.9412V72.1451C37.9625 73.1978 35.8235 76.0307 35.8235 79.3535C35.8235 83.5697 39.2673 87 43.5 87C47.7327 87 51.1765 83.5697 51.1765 79.3535C51.1765 76.0307 49.0375 73.1978 46.0588 72.1451V56.0742H54.5882V74.2559C54.5882 75.3531 55.2932 76.3268 56.3381 76.6739L64.8269 79.4922C64.9022 83.6447 68.3139 87 72.5 87C76.7327 87 80.1765 83.5697 80.1765 79.3535C80.1765 75.1373 76.7327 71.707 72.5 71.707C70.0438 71.707 67.8548 72.864 66.4481 74.6574L59.7059 72.4186V56.0742H69.0882ZM14.5 81.9023C13.0866 81.9023 11.9412 80.7613 11.9412 79.3535C11.9412 77.9457 13.0866 76.8047 14.5 76.8047C15.9134 76.8047 17.0588 77.9457 17.0588 79.3535C17.0588 80.7613 15.9134 81.9023 14.5 81.9023ZM43.5 81.9023C42.0867 81.9023 40.9412 80.7613 40.9412 79.3535C40.9412 77.9457 42.0867 76.8047 43.5 76.8047C44.9134 76.8047 46.0588 77.9457 46.0588 79.3535C46.0588 80.7613 44.9134 81.9023 43.5 81.9023ZM72.5 76.8047C73.9134 76.8047 75.0588 77.9457 75.0588 79.3535C75.0588 80.7613 73.9134 81.9023 72.5 81.9023C71.0867 81.9023 69.9412 80.7613 69.9412 79.3535C69.9412 77.9457 71.0867 76.8047 72.5 76.8047Z" fill="#42C9B1"/>
</svg>
